<svg width="175" height="26" viewBox="0 0 175 26" fill="none" xmlns="http://www.w3.org/2000/svg">
<path d="M31.7064 3.91617V23.8054H29.1391V3.91617H31.7064ZM48.4077 9.79831C49.5173 10.955 50.0722 12.6242 50.0722 14.8059V23.8054H47.5049V15.0316C47.5049 13.4893 47.1099 12.3044 46.32 11.4769C45.5301 10.6494 44.458 10.2356 43.1039 10.2356C41.6933 10.2356 40.5648 10.6917 39.7185 11.6039C38.8721 12.516 38.449 13.8467 38.449 15.5958V23.8054H35.8817V8.31719H38.449V11.9847C38.8439 10.7246 39.5445 9.75599 40.5507 9.07891C41.5569 8.40183 42.7183 8.06329 44.0349 8.06329C45.8404 8.06329 47.298 8.64163 48.4077 9.79831ZM65.0951 9.07891C66.2706 9.71837 67.1921 10.64 67.8598 11.8437C68.5275 13.0474 68.8613 14.4579 68.8613 16.0754C68.8613 17.6929 68.5275 19.0988 67.8598 20.2931C67.1921 21.4874 66.2706 22.4042 65.0951 23.0437C63.9196 23.6832 62.5889 24.0029 61.1031 24.0029C59.6173 24.0029 58.2866 23.6832 57.1112 23.0437C55.9357 22.4042 55.0094 21.4874 54.3323 20.2931C53.6552 19.0988 53.3167 17.6929 53.3167 16.0754C53.3167 14.4579 53.6552 13.0474 54.3323 11.8437C55.0094 10.64 55.9357 9.71837 57.1112 9.07891C58.2866 8.43944 59.6173 8.11971 61.1031 8.11971C62.5889 8.11971 63.9196 8.43944 65.0951 9.07891ZM58.5499 10.9973C57.7694 11.4111 57.1394 12.0458 56.6598 12.9016C56.1802 13.7574 55.9404 14.8153 55.9404 16.0754C55.9404 17.3167 56.1802 18.3653 56.6598 19.221C57.1394 20.0768 57.7694 20.7115 58.5499 21.1253C59.3305 21.5391 60.1815 21.746 61.1031 21.746C62.0247 21.746 62.8757 21.5391 63.6563 21.1253C64.4368 20.7115 65.0669 20.0768 65.5465 19.221C66.0261 18.3653 66.2659 17.3167 66.2659 16.0754C66.2659 14.8153 66.0261 13.7574 65.5465 12.9016C65.0669 12.0458 64.4368 11.4111 63.6563 10.9973C62.8757 10.5835 62.0247 10.3766 61.1031 10.3766C60.1815 10.3766 59.3305 10.5835 58.5499 10.9973ZM78.2842 21.0689L83.0802 8.31719H85.8449L79.7794 23.8054H76.7325L70.667 8.31719H73.4318L78.2842 21.0689ZM88.4406 2.63253C88.7604 2.34101 89.1835 2.19525 89.7101 2.19525C90.2368 2.19525 90.6599 2.34101 90.9797 2.63253C91.2994 2.92405 91.4593 3.30491 91.4593 3.77511C91.4593 4.2453 91.2994 4.62616 90.9797 4.91768C90.6599 5.2092 90.2368 5.35496 89.7101 5.35496C89.1835 5.35496 88.7604 5.2092 88.4406 4.91768C88.1209 4.62616 87.961 4.2453 87.961 3.77511C87.961 3.30491 88.1209 2.92405 88.4406 2.63253ZM90.9797 8.31719V23.8054H88.4124V8.31719H90.9797ZM104.225 9.48798C105.288 10.4002 105.932 11.6274 106.158 13.1696H103.703C103.59 12.248 103.209 11.491 102.561 10.8986C101.912 10.3061 101.042 10.0099 99.951 10.0099C99.0294 10.0099 98.31 10.2309 97.7928 10.6729C97.2756 11.1149 97.017 11.712 97.017 12.4643C97.017 13.0285 97.1909 13.4846 97.5389 13.8326C97.8868 14.1805 98.3194 14.4438 98.8366 14.6225C99.3538 14.8012 100.064 14.994 100.967 15.2009C102.114 15.4642 103.04 15.7322 103.745 16.0049C104.451 16.2776 105.053 16.7149 105.551 17.3167C106.049 17.9186 106.299 18.7273 106.299 19.7429C106.299 21.0031 105.824 22.0281 104.874 22.818C103.924 23.6079 102.659 24.0029 101.079 24.0029C99.2363 24.0029 97.7317 23.5609 96.5656 22.677C95.3995 21.793 94.713 20.5611 94.5061 18.9812H96.9888C97.0828 19.9216 97.4919 20.6833 98.216 21.2664C98.9401 21.8494 99.8946 22.1409 101.079 22.1409C101.963 22.1409 102.655 21.9152 103.153 21.4639C103.651 21.0125 103.901 20.42 103.901 19.6865C103.901 19.0847 103.722 18.6051 103.365 18.2477C103.007 17.8904 102.565 17.6177 102.039 17.4296C101.512 17.2415 100.788 17.044 99.8663 16.8371C98.7191 16.5738 97.8022 16.3105 97.1157 16.0472C96.4292 15.7839 95.8462 15.3654 95.3666 14.7918C94.887 14.2181 94.6472 13.4423 94.6472 12.4643C94.6472 11.1666 95.1268 10.118 96.086 9.31871C97.0452 8.51938 98.3523 8.11971 100.007 8.11971C101.757 8.11971 103.162 8.5758 104.225 9.48798ZM123.932 16.6114H111.547C111.603 18.3794 112.106 19.7053 113.056 20.5893C114.006 21.4733 115.167 21.9152 116.54 21.9152C117.782 21.9152 118.821 21.6002 119.658 20.9701C120.495 20.3401 121.007 19.4984 121.195 18.4452H123.932C123.744 19.5172 123.325 20.4764 122.676 21.3228C122.027 22.1691 121.186 22.8274 120.151 23.2976C119.117 23.7678 117.951 24.0029 116.653 24.0029C115.167 24.0029 113.851 23.6832 112.703 23.0437C111.556 22.4042 110.658 21.4874 110.009 20.2931C109.36 19.0988 109.036 17.6929 109.036 16.0754C109.036 14.4579 109.36 13.0474 110.009 11.8437C110.658 10.64 111.556 9.71837 112.703 9.07891C113.851 8.43944 115.167 8.11971 116.653 8.11971C118.158 8.11971 119.47 8.43944 120.589 9.07891C121.708 9.71837 122.563 10.5741 123.156 11.6462C123.748 12.7182 124.045 13.9031 124.045 15.2009C124.045 15.7463 124.007 16.2165 123.932 16.6114ZM120.885 12.4925C120.452 11.7214 119.86 11.1478 119.108 10.7716C118.355 10.3955 117.537 10.2074 116.653 10.2074C115.243 10.2074 114.058 10.6447 113.098 11.5192C112.139 12.3938 111.622 13.6774 111.547 15.3701H121.449C121.506 14.2228 121.317 13.2636 120.885 12.4925ZM139.985 9.79831C141.095 10.955 141.649 12.6242 141.649 14.8059V23.8054H139.082V15.0316C139.082 13.4893 138.687 12.3044 137.897 11.4769C137.107 10.6494 136.035 10.2356 134.681 10.2356C133.27 10.2356 132.142 10.6917 131.296 11.6039C130.449 12.516 130.026 13.8467 130.026 15.5958V23.8054H127.459V8.31719H130.026V11.9847C130.421 10.7246 131.122 9.75599 132.128 9.07891C133.134 8.40183 134.296 8.06329 135.612 8.06329C137.418 8.06329 138.875 8.64163 139.985 9.79831ZM154.726 9.48798C155.788 10.4002 156.432 11.6274 156.658 13.1696H154.204C154.091 12.248 153.71 11.491 153.061 10.8986C152.412 10.3061 151.542 10.0099 150.452 10.0099C149.53 10.0099 148.811 10.2309 148.293 10.6729C147.776 11.1149 147.518 11.712 147.518 12.4643C147.518 13.0285 147.692 13.4846 148.039 13.8326C148.387 14.1805 148.82 14.4438 149.337 14.6225C149.854 14.8012 150.564 14.994 151.467 15.2009C152.614 15.4642 153.541 15.7322 154.246 16.0049C154.951 16.2776 155.553 16.7149 156.052 17.3167C156.55 17.9186 156.799 18.7273 156.799 19.7429C156.799 21.0031 156.324 22.0281 155.375 22.818C154.425 23.6079 153.16 24.0029 151.58 24.0029C149.737 24.0029 148.232 23.5609 147.066 22.677C145.9 21.793 145.214 20.5611 145.007 18.9812H147.489C147.583 19.9216 147.992 20.6833 148.717 21.2664C149.441 21.8494 150.395 22.1409 151.58 22.1409C152.464 22.1409 153.155 21.9152 153.654 21.4639C154.152 21.0125 154.401 20.42 154.401 19.6865C154.401 19.0847 154.223 18.6051 153.865 18.2477C153.508 17.8904 153.066 17.6177 152.539 17.4296C152.013 17.2415 151.289 17.044 150.367 16.8371C149.22 16.5738 148.303 16.3105 147.616 16.0472C146.93 15.7839 146.347 15.3654 145.867 14.7918C145.388 14.2181 145.148 13.4423 145.148 12.4643C145.148 11.1666 145.627 10.118 146.587 9.31871C147.546 8.51938 148.853 8.11971 150.508 8.11971C152.257 8.11971 153.663 8.5758 154.726 9.48798ZM174.432 16.6114H162.047C162.104 18.3794 162.607 19.7053 163.557 20.5893C164.507 21.4733 165.668 21.9152 167.041 21.9152C168.282 21.9152 169.321 21.6002 170.158 20.9701C170.995 20.3401 171.508 19.4984 171.696 18.4452H174.432C174.244 19.5172 173.826 20.4764 173.177 21.3228C172.528 22.1691 171.686 22.8274 170.652 23.2976C169.618 23.7678 168.451 24.0029 167.154 24.0029C165.668 24.0029 164.351 23.6832 163.204 23.0437C162.057 22.4042 161.159 21.4874 160.51 20.2931C159.861 19.0988 159.537 17.6929 159.537 16.0754C159.537 14.4579 159.861 13.0474 160.51 11.8437C161.159 10.64 162.057 9.71837 163.204 9.07891C164.351 8.43944 165.668 8.11971 167.154 8.11971C168.658 8.11971 169.97 8.43944 171.089 9.07891C172.208 9.71837 173.064 10.5741 173.657 11.6462C174.249 12.7182 174.545 13.9031 174.545 15.2009C174.545 15.7463 174.508 16.2165 174.432 16.6114ZM171.385 12.4925C170.953 11.7214 170.36 11.1478 169.608 10.7716C168.856 10.3955 168.038 10.2074 167.154 10.2074C165.743 10.2074 164.558 10.6447 163.599 11.5192C162.64 12.3938 162.123 13.6774 162.047 15.3701H171.95C172.006 14.2228 171.818 13.2636 171.385 12.4925Z" fill="#0094FF"/>
<mask id="mask0_223_314" style="mask-type:luminance" maskUnits="userSpaceOnUse" x="0" y="0" width="25" height="26">
<path d="M0.454834 0.19281H24.1719V25.8072H0.454834V0.19281Z" fill="white"/>
</mask>
<g mask="url(#mask0_223_314)">
<mask id="mask1_223_314" style="mask-type:luminance" maskUnits="userSpaceOnUse" x="0" y="0" width="25" height="26">
<path d="M0.454834 0.19281H24.1719V25.8072H0.454834V0.19281Z" fill="white"/>
</mask>
<g mask="url(#mask1_223_314)">
<path fill-rule="evenodd" clip-rule="evenodd" d="M6.62126 11.7424L1.40351 14.9527V21.4825L6.62126 24.6928L11.839 21.4825V14.9527L6.62126 11.7424ZM12.7877 14.4231L6.62126 10.6284L0.454834 14.4231V22.0126L6.62126 25.8073L12.7877 22.0126V14.4231Z" fill="#0094FF"/>
</g>
<mask id="mask2_223_314" style="mask-type:luminance" maskUnits="userSpaceOnUse" x="0" y="0" width="25" height="26">
<path d="M0.454834 0.19281H24.1719V25.8072H0.454834V0.19281Z" fill="white"/>
</mask>
<g mask="url(#mask2_223_314)">
<path fill-rule="evenodd" clip-rule="evenodd" d="M18.006 11.7424L12.7882 14.9527V21.4825L18.006 24.6928L23.2237 21.4825V14.9527L18.006 11.7424ZM24.1724 14.4231L18.006 10.6284L11.8395 14.4231V22.0126L18.006 25.8073L24.1724 22.0126V14.4231Z" fill="#0094FF"/>
</g>
<mask id="mask3_223_314" style="mask-type:luminance" maskUnits="userSpaceOnUse" x="0" y="0" width="25" height="26">
<path d="M0.454834 0.19281H24.1719V25.8072H0.454834V0.19281Z" fill="white"/>
</mask>
<g mask="url(#mask3_223_314)">
<path fill-rule="evenodd" clip-rule="evenodd" d="M12.3136 1.30682L7.09584 4.5176V11.0469L12.3136 14.2577L17.5313 11.0469V4.5176L12.3136 1.30682ZM18.48 3.98753L12.3136 0.19281L6.14716 3.98753V11.577L12.3136 15.3717L18.48 11.577V3.98753Z" fill="#0094FF"/>
</g>
</g>
</svg>
