<svg width="175" height="26" viewBox="0 0 175 26" fill="none" xmlns="http://www.w3.org/2000/svg">
<mask id="mask0_822_327" style="mask-type:luminance" maskUnits="userSpaceOnUse" x="0" y="0" width="24" height="26">
<path d="M0.00756836 0.37561H23.7246V25.99H0.00756836V0.37561Z" fill="white"/>
</mask>
<g mask="url(#mask0_822_327)">
<mask id="mask1_822_327" style="mask-type:luminance" maskUnits="userSpaceOnUse" x="0" y="0" width="24" height="26">
<path d="M0.00756836 0.37561H23.7246V25.99H0.00756836V0.37561Z" fill="white"/>
</mask>
<g mask="url(#mask1_822_327)">
<path fill-rule="evenodd" clip-rule="evenodd" d="M6.17399 11.9252L0.956249 15.1355V21.6653L6.17399 24.8756L11.3917 21.6653V15.1355L6.17399 11.9252ZM12.3404 14.6059L6.17399 10.8112L0.00756836 14.6059V22.1954L6.17399 25.9901L12.3404 22.1954V14.6059Z" fill="white"/>
</g>
<mask id="mask2_822_327" style="mask-type:luminance" maskUnits="userSpaceOnUse" x="0" y="0" width="24" height="26">
<path d="M0.00756836 0.37561H23.7246V25.99H0.00756836V0.37561Z" fill="white"/>
</mask>
<g mask="url(#mask2_822_327)">
<path fill-rule="evenodd" clip-rule="evenodd" d="M17.5587 11.9252L12.341 15.1355V21.6653L17.5587 24.8756L22.7764 21.6653V15.1355L17.5587 11.9252ZM23.7251 14.6059L17.5587 10.8112L11.3923 14.6059V22.1954L17.5587 25.9901L23.7251 22.1954V14.6059Z" fill="white"/>
</g>
<mask id="mask3_822_327" style="mask-type:luminance" maskUnits="userSpaceOnUse" x="0" y="0" width="24" height="26">
<path d="M0.00756836 0.37561H23.7246V25.99H0.00756836V0.37561Z" fill="white"/>
</mask>
<g mask="url(#mask3_822_327)">
<path fill-rule="evenodd" clip-rule="evenodd" d="M11.8663 1.48962L6.64857 4.7004V11.2297L11.8663 14.4405L17.0841 11.2297V4.7004L11.8663 1.48962ZM18.0327 4.17033L11.8663 0.37561L5.69989 4.17033V11.7598L11.8663 15.5545L18.0327 11.7598V4.17033Z" fill="white"/>
</g>
</g>
<path d="M31.259 4.09897V23.9882H28.6918V4.09897H31.259ZM47.9604 9.98111C49.07 11.1378 49.6248 12.807 49.6248 14.9887V23.9882H47.0576V15.2144C47.0576 13.6721 46.6626 12.4872 45.8727 11.6597C45.0828 10.8322 44.0107 10.4184 42.6566 10.4184C41.246 10.4184 40.1175 10.8745 39.2712 11.7867C38.4248 12.6988 38.0016 14.0295 38.0016 15.7786V23.9882H35.4344V8.49999H38.0016V12.1675C38.3966 10.9074 39.0972 9.93879 40.1034 9.26171C41.1096 8.58463 42.271 8.24609 43.5875 8.24609C45.3931 8.24609 46.8507 8.82443 47.9604 9.98111ZM64.6477 9.26171C65.8232 9.90118 66.7448 10.8228 67.4125 12.0265C68.0802 13.2302 68.414 14.6407 68.414 16.2582C68.414 17.8757 68.0802 19.2816 67.4125 20.4759C66.7448 21.6702 65.8232 22.587 64.6477 23.2265C63.4723 23.866 62.1416 24.1857 60.6558 24.1857C59.17 24.1857 57.8393 23.866 56.6638 23.2265C55.4883 22.587 54.5621 21.6702 53.885 20.4759C53.2079 19.2816 52.8693 17.8757 52.8693 16.2582C52.8693 14.6407 53.2079 13.2302 53.885 12.0265C54.5621 10.8228 55.4883 9.90118 56.6638 9.26171C57.8393 8.62224 59.17 8.30251 60.6558 8.30251C62.1416 8.30251 63.4723 8.62224 64.6477 9.26171ZM58.1026 11.1801C57.3221 11.5939 56.692 12.2286 56.2124 13.0844C55.7328 13.9402 55.493 14.9981 55.493 16.2582C55.493 17.4995 55.7328 18.5481 56.2124 19.4038C56.692 20.2596 57.3221 20.8943 58.1026 21.3081C58.8831 21.7219 59.7342 21.9288 60.6558 21.9288C61.5774 21.9288 62.4284 21.7219 63.2089 21.3081C63.9895 20.8943 64.6195 20.2596 65.0991 19.4038C65.5787 18.5481 65.8185 17.4995 65.8185 16.2582C65.8185 14.9981 65.5787 13.9402 65.0991 13.0844C64.6195 12.2286 63.9895 11.5939 63.2089 11.1801C62.4284 10.7663 61.5774 10.5594 60.6558 10.5594C59.7342 10.5594 58.8831 10.7663 58.1026 11.1801ZM77.8369 21.2517L82.6329 8.49999H85.3976L79.3321 23.9882H76.2852L70.2197 8.49999H72.9845L77.8369 21.2517ZM87.9933 2.81533C88.313 2.52381 88.7362 2.37805 89.2628 2.37805C89.7894 2.37805 90.2126 2.52381 90.5323 2.81533C90.8521 3.10685 91.0119 3.48771 91.0119 3.95791C91.0119 4.4281 90.8521 4.80896 90.5323 5.10048C90.2126 5.392 89.7894 5.53776 89.2628 5.53776C88.7362 5.53776 88.313 5.392 87.9933 5.10048C87.6736 4.80896 87.5137 4.4281 87.5137 3.95791C87.5137 3.48771 87.6736 3.10685 87.9933 2.81533ZM90.5323 8.49999V23.9882H87.9651V8.49999H90.5323ZM103.778 9.67078C104.84 10.583 105.485 11.8102 105.71 13.3524H103.256C103.143 12.4308 102.762 11.6738 102.113 11.0814C101.464 10.4889 100.595 10.1927 99.5037 10.1927C98.5821 10.1927 97.8627 10.4137 97.3455 10.8557C96.8282 11.2977 96.5696 11.8948 96.5696 12.6471C96.5696 13.2113 96.7436 13.6674 97.0916 14.0154C97.4395 14.3633 97.8721 14.6266 98.3893 14.8053C98.9065 14.984 99.6165 15.1768 100.519 15.3837C101.667 15.647 102.593 15.915 103.298 16.1877C104.003 16.4604 104.605 16.8977 105.104 17.4995C105.602 18.1014 105.851 18.9101 105.851 19.9257C105.851 21.1859 105.376 22.2109 104.427 23.0008C103.477 23.7907 102.212 24.1857 100.632 24.1857C98.789 24.1857 97.2843 23.7437 96.1183 22.8598C94.9522 21.9758 94.2657 20.7439 94.0588 19.164H96.5414C96.6355 20.1044 97.0445 20.8661 97.7686 21.4492C98.4927 22.0322 99.4472 22.3237 100.632 22.3237C101.516 22.3237 102.207 22.098 102.706 21.6467C103.204 21.1953 103.453 20.6028 103.453 19.8693C103.453 19.2675 103.275 18.7879 102.917 18.4305C102.56 18.0732 102.118 17.8005 101.591 17.6124C101.065 17.4243 100.341 17.2268 99.419 17.0199C98.2717 16.7566 97.3549 16.4933 96.6684 16.23C95.9819 15.9667 95.3988 15.5482 94.9193 14.9746C94.4397 14.4009 94.1999 13.6251 94.1999 12.6471C94.1999 11.3494 94.6795 10.3008 95.6387 9.50151C96.5979 8.70218 97.905 8.30251 99.5601 8.30251C101.309 8.30251 102.715 8.7586 103.778 9.67078ZM123.484 16.7942H111.099C111.156 18.5622 111.659 19.8881 112.609 20.7721C113.559 21.6561 114.72 22.098 116.093 22.098C117.334 22.098 118.373 21.783 119.21 21.1529C120.047 20.5229 120.56 19.6812 120.748 18.628H123.484C123.296 19.7 122.878 20.6592 122.229 21.5056C121.58 22.3519 120.738 23.0102 119.704 23.4804C118.67 23.9506 117.504 24.1857 116.206 24.1857C114.72 24.1857 113.403 23.866 112.256 23.2265C111.109 22.587 110.211 21.6702 109.562 20.4759C108.913 19.2816 108.589 17.8757 108.589 16.2582C108.589 14.6407 108.913 13.2302 109.562 12.0265C110.211 10.8228 111.109 9.90118 112.256 9.26171C113.403 8.62224 114.72 8.30251 116.206 8.30251C117.71 8.30251 119.022 8.62224 120.141 9.26171C121.26 9.90118 122.116 10.7569 122.709 11.829C123.301 12.901 123.597 14.0859 123.597 15.3837C123.597 15.9291 123.56 16.3993 123.484 16.7942ZM120.438 12.6753C120.005 11.9042 119.413 11.3306 118.66 10.9544C117.908 10.5783 117.09 10.3902 116.206 10.3902C114.795 10.3902 113.61 10.8275 112.651 11.702C111.692 12.5766 111.175 13.8602 111.099 15.5529H121.002C121.058 14.4056 120.87 13.4464 120.438 12.6753ZM139.538 9.98111C140.647 11.1378 141.202 12.807 141.202 14.9887V23.9882H138.635V15.2144C138.635 13.6721 138.24 12.4872 137.45 11.6597C136.66 10.8322 135.588 10.4184 134.234 10.4184C132.823 10.4184 131.695 10.8745 130.848 11.7867C130.002 12.6988 129.579 14.0295 129.579 15.7786V23.9882H127.012V8.49999H129.579V12.1675C129.974 10.9074 130.674 9.93879 131.681 9.26171C132.687 8.58463 133.848 8.24609 135.165 8.24609C136.97 8.24609 138.428 8.82443 139.538 9.98111ZM154.278 9.67078C155.341 10.583 155.985 11.8102 156.211 13.3524H153.756C153.644 12.4308 153.263 11.6738 152.614 11.0814C151.965 10.4889 151.095 10.1927 150.004 10.1927C149.083 10.1927 148.363 10.4137 147.846 10.8557C147.329 11.2977 147.07 11.8948 147.07 12.6471C147.07 13.2113 147.244 13.6674 147.592 14.0154C147.94 14.3633 148.373 14.6266 148.89 14.8053C149.407 14.984 150.117 15.1768 151.02 15.3837C152.167 15.647 153.093 15.915 153.799 16.1877C154.504 16.4604 155.106 16.8977 155.604 17.4995C156.103 18.1014 156.352 18.9101 156.352 19.9257C156.352 21.1859 155.877 22.2109 154.927 23.0008C153.977 23.7907 152.713 24.1857 151.133 24.1857C149.29 24.1857 147.785 23.7437 146.619 22.8598C145.453 21.9758 144.766 20.7439 144.559 19.164H147.042C147.136 20.1044 147.545 20.8661 148.269 21.4492C148.993 22.0322 149.948 22.3237 151.133 22.3237C152.017 22.3237 152.708 22.098 153.206 21.6467C153.705 21.1953 153.954 20.6028 153.954 19.8693C153.954 19.2675 153.775 18.7879 153.418 18.4305C153.061 18.0732 152.619 17.8005 152.092 17.6124C151.565 17.4243 150.841 17.2268 149.92 17.0199C148.772 16.7566 147.855 16.4933 147.169 16.23C146.482 15.9667 145.899 15.5482 145.42 14.9746C144.94 14.4009 144.7 13.6251 144.7 12.6471C144.7 11.3494 145.18 10.3008 146.139 9.50151C147.098 8.70218 148.406 8.30251 150.061 8.30251C151.81 8.30251 153.216 8.7586 154.278 9.67078ZM173.985 16.7942H161.6C161.657 18.5622 162.16 19.8881 163.109 20.7721C164.059 21.6561 165.221 22.098 166.594 22.098C167.835 22.098 168.874 21.783 169.711 21.1529C170.548 20.5229 171.06 19.6812 171.248 18.628H173.985C173.797 19.7 173.378 20.6592 172.73 21.5056C172.081 22.3519 171.239 23.0102 170.205 23.4804C169.17 23.9506 168.004 24.1857 166.706 24.1857C165.221 24.1857 163.904 23.866 162.757 23.2265C161.609 22.587 160.711 21.6702 160.063 20.4759C159.414 19.2816 159.089 17.8757 159.089 16.2582C159.089 14.6407 159.414 13.2302 160.063 12.0265C160.711 10.8228 161.609 9.90118 162.757 9.26171C163.904 8.62224 165.221 8.30251 166.706 8.30251C168.211 8.30251 169.523 8.62224 170.642 9.26171C171.761 9.90118 172.617 10.7569 173.209 11.829C173.802 12.901 174.098 14.0859 174.098 15.3837C174.098 15.9291 174.06 16.3993 173.985 16.7942ZM170.938 12.6753C170.506 11.9042 169.913 11.3306 169.161 10.9544C168.409 10.5783 167.59 10.3902 166.706 10.3902C165.296 10.3902 164.111 10.8275 163.152 11.702C162.193 12.5766 161.675 13.8602 161.6 15.5529H171.502C171.559 14.4056 171.371 13.4464 170.938 12.6753Z" fill="white"/>
</svg>
